<svg width="30" height="30" viewBox="0 0 30 30" fill="none" xmlns="http://www.w3.org/2000/svg">
<path d="M13.8 9.5625L19.05 0.5625C21.325 1.1625 23.3438 2.2625 25.1063 3.8625C26.8688 5.4625 28.15 7.3625 28.95 9.5625H13.8ZM9.6375 13.3125L4.5 4.3125C5.85 2.9875 7.41875 1.9375 9.20625 1.1625C10.9938 0.3875 12.925 0 15 0C15.325 0 15.7 0.01875 16.125 0.05625C16.55 0.09375 16.9375 0.1375 17.2875 0.1875L9.6375 13.3125ZM0.4875 18.75C0.3375 18.15 0.21875 17.5375 0.13125 16.9125C0.04375 16.2875 0 15.65 0 15C0 13.225 0.2875 11.55 0.8625 9.975C1.4375 8.4 2.25 6.9625 3.3 5.6625L10.875 18.75H0.4875ZM10.9875 29.4375C8.7125 28.8375 6.6875 27.7375 4.9125 26.1375C3.1375 24.5375 1.85 22.6375 1.05 20.4375H16.1625L10.9875 29.4375ZM15 30C14.625 30 14.2437 29.975 13.8562 29.925C13.4688 29.875 13.1 29.825 12.75 29.775L20.3625 16.6875L25.5 25.6875C24.15 27.0125 22.5813 28.0625 20.7938 28.8375C19.0063 29.6125 17.075 30 15 30ZM26.7 24.3375L19.125 11.25H29.5125C29.6625 11.85 29.7812 12.4625 29.8687 13.0875C29.9562 13.7125 30 14.35 30 15C30 16.75 29.6937 18.425 29.0812 20.025C28.4688 21.625 27.675 23.0625 26.7 24.3375Z" fill="white"/>
</svg>
