<svg width="33" height="33" viewBox="0 0 33 33" fill="none" xmlns="http://www.w3.org/2000/svg">
<path d="M26.125 4.125H6.875C5.35622 4.125 4.125 5.35622 4.125 6.875V26.125C4.125 27.6438 5.35622 28.875 6.875 28.875H26.125C27.6438 28.875 28.875 27.6438 28.875 26.125V6.875C28.875 5.35622 27.6438 4.125 26.125 4.125Z" stroke="white" stroke-width="2" stroke-linecap="round" stroke-linejoin="round"/>
<path d="M12.375 15.125C13.8938 15.125 15.125 13.8938 15.125 12.375C15.125 10.8562 13.8938 9.625 12.375 9.625C10.8562 9.625 9.625 10.8562 9.625 12.375C9.625 13.8938 10.8562 15.125 12.375 15.125Z" stroke="white" stroke-width="2" stroke-linecap="round" stroke-linejoin="round"/>
<path d="M28.875 20.625L24.6317 16.3817C24.116 15.8662 23.4167 15.5765 22.6875 15.5765C21.9583 15.5765 21.259 15.8662 20.7433 16.3817L8.25 28.875" stroke="white" stroke-width="2" stroke-linecap="round" stroke-linejoin="round"/>
</svg>
