<svg width="249" height="73" viewBox="0 0 249 73" fill="none" xmlns="http://www.w3.org/2000/svg">
<g clip-path="url(#clip0_737_216)">
<path d="M16.8899 59.88C13.7223 59.9723 10.5896 59.1978 7.8299 57.64C5.32302 56.1688 3.29759 54.0009 1.9999 51.4C0.614191 48.5314 -0.0712419 45.375 -0.000101762 42.19C-0.0815258 38.988 0.604224 35.813 1.9999 32.93C3.31713 30.3356 5.35088 28.1734 7.8599 26.7C10.5986 25.1443 13.7115 24.3695 16.8599 24.46C19.5762 24.3989 22.2708 24.9563 24.7399 26.09C26.9056 27.099 28.7527 28.6833 30.0799 30.67C31.4152 32.737 32.1588 35.1302 32.2299 37.59H23.2299C23.0484 36.0242 22.3437 34.5654 21.2299 33.45C20.666 32.9177 20.0012 32.5036 19.2747 32.2322C18.5482 31.9609 17.7747 31.8377 16.9999 31.87C15.9634 31.8454 14.9366 32.0749 14.0092 32.5386C13.0818 33.0023 12.2821 33.686 11.6799 34.53C10.3466 36.2967 9.6799 38.8067 9.6799 42.06C9.6799 45.33 10.3499 47.87 11.6799 49.66C12.2745 50.5146 13.0717 51.2085 14 51.6796C14.9284 52.1508 15.9591 52.3846 16.9999 52.36C18.5154 52.4029 19.9909 51.8706 21.1299 50.87C22.3135 49.7567 23.0586 48.2558 23.2299 46.64H32.2299C32.1325 49.0924 31.3984 51.4773 30.0999 53.56C28.81 55.5688 26.9895 57.1816 24.8399 58.22C22.3609 59.3804 19.6462 59.9487 16.9099 59.88" fill="white"/>
<path d="M47.12 60.37C44.198 60.4752 41.3294 59.5673 39 57.8C36.84 56.0933 35.76 53.54 35.76 50.14C35.6451 47.9901 36.2854 45.8677 37.57 44.14C38.8238 42.6489 40.4688 41.5372 42.32 40.93C44.3699 40.2377 46.4948 39.7912 48.65 39.6C50.7855 39.4199 52.9067 39.0992 55 38.64C56.28 38.31 56.92 37.64 56.92 36.49V36.36C56.9567 35.7472 56.8564 35.134 56.6264 34.5649C56.3963 33.9958 56.0422 33.4851 55.59 33.07C54.5204 32.2371 53.1829 31.8245 51.83 31.91C50.3853 31.8283 48.9524 32.2102 47.74 33C46.7698 33.6918 46.0644 34.6935 45.74 35.84L36.94 35.12C37.5234 32.0941 39.277 29.4206 41.82 27.68C44.8099 25.7636 48.3228 24.8268 51.87 25C54.2965 24.9735 56.7092 25.3694 59 26.17C61.1091 26.9018 62.9722 28.2074 64.38 29.94C65.7926 31.8564 66.4992 34.2022 66.38 36.58V59.72H57.38V55H57.12C56.254 56.6187 54.9558 57.9653 53.37 58.89C51.4559 59.9627 49.2825 60.4853 47.09 60.4M49.81 53.83C51.712 53.9172 53.5733 53.2609 55 52C55.643 51.4382 56.1553 50.7425 56.5008 49.9616C56.8463 49.1808 57.0167 48.3337 57 47.48V43.82C56.4651 44.139 55.8802 44.3655 55.27 44.49C54.49 44.68 53.65 44.85 52.77 44.99L50.39 45.36C48.9669 45.5202 47.599 46.0024 46.39 46.77C45.893 47.1051 45.491 47.5629 45.223 48.099C44.9549 48.6351 44.8299 49.2314 44.86 49.83C44.8205 50.4087 44.9292 50.9879 45.1759 51.5129C45.4227 52.0378 45.7992 52.4912 46.27 52.83C47.3389 53.5331 48.6016 53.8829 49.88 53.83" fill="white"/>
<path d="M70.74 72.75V25.57H80.12V31.34H80.54C81.0296 30.3187 81.648 29.3643 82.38 28.5C83.241 27.4909 84.3038 26.6734 85.5 26.1C87.0038 25.3974 88.6507 25.055 90.31 25.1C92.7548 25.0811 95.1547 25.7574 97.23 27.05C99.4575 28.5012 101.215 30.5683 102.29 33C103.659 36.084 104.312 39.4378 104.2 42.81C104.298 46.1363 103.667 49.4438 102.35 52.5C101.291 54.937 99.5562 57.0194 97.35 58.5C95.243 59.843 92.7883 60.5384 90.29 60.5C88.6755 60.5454 87.0709 60.2347 85.59 59.59C84.3909 59.0473 83.3181 58.2605 82.44 57.28C81.6858 56.4258 81.0501 55.4739 80.55 54.45H80.26V72.75H70.74ZM80.05 42.75C79.9249 45.3376 80.5836 47.9028 81.94 50.11C82.5113 50.9956 83.303 51.7174 84.2374 52.2048C85.1718 52.6922 86.2168 52.9283 87.27 52.89C88.34 52.9304 89.4014 52.6837 90.3439 52.1755C91.2864 51.6673 92.0757 50.9162 92.63 50C93.952 47.7982 94.5955 45.2556 94.48 42.69C94.5973 40.1445 93.957 37.6214 92.64 35.44C92.0341 34.5873 91.2342 33.8908 90.3063 33.4079C89.3784 32.9251 88.3489 32.6697 87.3029 32.6629C86.2569 32.656 85.2242 32.8979 84.29 33.3686C83.3559 33.8393 82.547 34.5253 81.93 35.37C80.5738 37.5622 79.918 40.1156 80.05 42.69" fill="white"/>
<path d="M128.77 25.57V32.72H122.32V49.34C122.257 49.8218 122.305 50.3116 122.459 50.7723C122.613 51.2331 122.87 51.6529 123.21 52C123.884 52.4836 124.701 52.7266 125.53 52.69C125.979 52.6902 126.428 52.65 126.87 52.57L127.87 52.38L129.37 59.46C128.89 59.61 128.22 59.78 127.37 59.98C126.335 60.2084 125.28 60.3323 124.22 60.35C121.266 60.6401 118.308 59.8437 115.9 58.11C113.8 56.46 112.77 53.96 112.78 50.59V32.72H108.09V25.57H112.78V17.35H122.3V25.57H128.77Z" fill="white"/>
<path d="M144.48 25.57H134.96V59.88H144.48V25.57Z" fill="white"/>
<path d="M239.49 14.14V31.34H239.2C238.733 30.3109 238.12 29.3545 237.38 28.5C236.515 27.4954 235.453 26.6786 234.26 26.1C232.753 25.3956 231.103 25.0531 229.44 25.1C226.998 25.0825 224.602 25.7587 222.53 27.05C220.297 28.4976 218.535 30.5655 217.46 33C216.087 36.0826 215.433 39.4374 215.55 42.81C215.447 46.1367 216.078 49.4453 217.4 52.5C218.457 54.9377 220.193 57.0202 222.4 58.5C223.852 59.4358 225.484 60.059 227.19 60.33H231.79C232.611 60.1958 233.412 59.9537 234.17 59.61C235.369 59.062 236.444 58.2761 237.33 57.3C238.088 56.4531 238.718 55.4997 239.2 54.47H239.61V59.96H249V14.14H239.49ZM237.81 50.14C237.238 51.0249 236.446 51.7462 235.512 52.2335C234.578 52.7208 233.533 52.9573 232.48 52.92C231.407 52.9574 230.344 52.7061 229.401 52.1925C228.458 51.6789 227.67 50.9218 227.12 50C225.794 47.7993 225.147 45.2566 225.26 42.69C225.146 40.1435 225.789 37.6204 227.11 35.44C227.716 34.5873 228.516 33.8908 229.444 33.4079C230.372 32.9251 231.401 32.6697 232.447 32.6629C233.493 32.6561 234.526 32.8979 235.46 33.3686C236.394 33.8393 237.203 34.5253 237.82 35.37C239.173 37.5633 239.825 40.1167 239.69 42.69C239.818 45.2766 239.163 47.8417 237.81 50.05" fill="white"/>
<path d="M197 0H184L172.65 29.73L156.55 17.25H148.8L159.31 59.89H170L177 41.66L201.07 60.25H213.86L197 0ZM164.85 50.12H164.49L159.3 27.81L170.16 36.28L164.85 50.12ZM179.55 35.12L189.83 8.2L202.4 52.78L179.55 35.12Z" fill="white"/>
<path d="M139.68 21C138.336 21.0228 137.038 20.5122 136.07 19.58C135.591 19.1522 135.208 18.6283 134.946 18.0424C134.684 17.4565 134.549 16.8218 134.549 16.18C134.549 15.5381 134.684 14.9035 134.946 14.3176C135.208 13.7317 135.591 13.2077 136.07 12.78C137.041 11.8542 138.338 11.3477 139.68 11.37C141.034 11.3458 142.344 11.8518 143.33 12.78C143.806 13.2094 144.186 13.7339 144.446 14.3196C144.707 14.9052 144.841 15.539 144.841 16.18C144.841 16.8209 144.707 17.4547 144.446 18.0404C144.186 18.626 143.806 19.1505 143.33 19.58C142.347 20.5146 141.036 21.0247 139.68 21Z" fill="white"/>
</g>
<defs>
<clipPath id="clip0_737_216">
<rect width="248.99" height="72.75" fill="white"/>
</clipPath>
</defs>
</svg>
