<svg width="32" height="15" viewBox="0 0 32 15" fill="none" xmlns="http://www.w3.org/2000/svg">
<path d="M7.33333 14.6667C5.28889 14.6667 3.55556 13.9556 2.13333 12.5333C0.711111 11.1111 0 9.37778 0 7.33333C0 5.28889 0.711111 3.55556 2.13333 2.13333C3.55556 0.711111 5.28889 0 7.33333 0C8.15556 0 8.94444 0.144444 9.7 0.433333C10.4556 0.722222 11.1333 1.13333 11.7333 1.66667L14 3.73333L12 5.53333L9.93333 3.66667C9.57778 3.35556 9.17778 3.11111 8.73333 2.93333C8.28889 2.75556 7.82222 2.66667 7.33333 2.66667C6.04444 2.66667 4.94444 3.12222 4.03333 4.03333C3.12222 4.94444 2.66667 6.04444 2.66667 7.33333C2.66667 8.62222 3.12222 9.72222 4.03333 10.6333C4.94444 11.5444 6.04444 12 7.33333 12C7.82222 12 8.28889 11.9111 8.73333 11.7333C9.17778 11.5556 9.57778 11.3111 9.93333 11L20.2667 1.66667C20.8667 1.13333 21.5444 0.722222 22.3 0.433333C23.0556 0.144444 23.8444 0 24.6667 0C26.7111 0 28.4444 0.711111 29.8667 2.13333C31.2889 3.55556 32 5.28889 32 7.33333C32 9.37778 31.2889 11.1111 29.8667 12.5333C28.4444 13.9556 26.7111 14.6667 24.6667 14.6667C23.8444 14.6667 23.0556 14.5222 22.3 14.2333C21.5444 13.9444 20.8667 13.5333 20.2667 13L18 10.9333L20 9.13333L22.0667 11C22.4222 11.3111 22.8222 11.5556 23.2667 11.7333C23.7111 11.9111 24.1778 12 24.6667 12C25.9556 12 27.0556 11.5444 27.9667 10.6333C28.8778 9.72222 29.3333 8.62222 29.3333 7.33333C29.3333 6.04444 28.8778 4.94444 27.9667 4.03333C27.0556 3.12222 25.9556 2.66667 24.6667 2.66667C24.1778 2.66667 23.7111 2.75556 23.2667 2.93333C22.8222 3.11111 22.4222 3.35556 22.0667 3.66667L11.7333 13C11.1333 13.5333 10.4556 13.9444 9.7 14.2333C8.94444 14.5222 8.15556 14.6667 7.33333 14.6667Z" fill="white"/>
</svg>
